<?xml version="1.0" encoding="UTF-8"?><svg id="Layer_1" xmlns="http://www.w3.org/2000/svg" viewBox="0 0 62.53 51.05"><defs><style>.cls-1{fill:#0013ff;}</style></defs><path class="cls-1" d="m53.1,47.14c-3.98,1.01-7.56,2.26-11.27,2.81-4.19.7-8.51.94-12.76,1.09-4.12.16-7.43-2.19-11.07-3.67-3.17-1.33-4.93-4.14-7.7-5.78-1.69-1.01-3.58-1.48-5.4-2.19h-.47c-.81-.23-4.32-4.76-4.39-5.62-.27-3.59,1.01-6.79,2.36-9.99,1.49-3.44,2.7-6.87,1.42-10.7-.27-.78.34-2.19,1.01-2.73.88-.78,2.3-1.09,3.44-1.56,1.62-.62,3.51-.78,4.19-2.73.13-.39.68-.7,1.15-.86,3.78-1.01,7.56-2.03,11.41-2.97,3.04-.7,6.08-1.17,9.11-1.87,2.09-.47,3.98-.7,6.01.55,4.19,2.65,8.78,4.76,12.69,7.65,3.31,2.5,6.41,5.46,7.7,9.68.2.55.68,1.09.88,1.64.41,1.17,1.35,2.5,1.08,3.51-1.22,4.29-.61,8.98-3.24,12.88-.54.86-.61,2.11-.68,3.12-.2,2.34-2.09,4.68-4.39,4.92-1.62.16-2.5.62-1.15,2.81h.07Z"/></svg>